<svg xmlns="http://www.w3.org/2000/svg" version="1.1" xmlns:xlink="http://www.w3.org/1999/xlink" xmlns:svgjs="http://svgjs.dev/svgjs" width="1000" height="1000" viewBox="0 0 1000 1000"><rect width="1000" height="1000" fill="#000000"></rect><g transform="matrix(0.7,0,0,0.7,150,281.25)"><svg viewBox="0 0 512 320" data-background-color="#cf5260" preserveAspectRatio="xMidYMid meet" height="625" width="1000" xmlns="http://www.w3.org/2000/svg" xmlns:xlink="http://www.w3.org/1999/xlink"><g id="tight-bounds" transform="matrix(1,0,0,1,0,0)"><svg viewBox="0 0 512 320" height="320" width="512"><g><svg></svg></g><g><svg viewBox="0 0 512 320" height="320" width="512"><g><path xmlns="http://www.w3.org/2000/svg" d="M96 160c0-88.366 71.634-160 160-160 88.366 0 160 71.634 160 160 0 88.366-71.634 160-160 160-88.366 0-160-71.634-160-160z" fill="#ffffff" fill-rule="nonzero" stroke="none" stroke-width="1" stroke-linecap="butt" stroke-linejoin="miter" stroke-miterlimit="10" stroke-dasharray="" stroke-dashoffset="0" font-family="none" font-weight="none" font-size="none" text-anchor="none" style="mix-blend-mode: normal" data-fill-palette-color="tertiary"></path></g><g transform="matrix(1,0,0,1,193.51243781094527,80)"><svg viewBox="0 0 124.97512437810946 160" height="160" width="124.97512437810946"><g><svg viewBox="0 0 124.97512437810946 160" height="160" width="124.97512437810946"><g><svg viewBox="0 0 124.97512437810946 160" height="160" width="124.97512437810946"><g><svg viewBox="0 0 124.97512437810946 160" height="160" width="124.97512437810946"><g id="textblocktransform"><svg viewBox="0 0 124.97512437810946 160" height="160" width="124.97512437810946" id="textblock"><g><svg viewBox="0 0 124.97512437810946 160" height="160" width="124.97512437810946"><g transform="matrix(1,0,0,1,0,0)"><svg width="124.97512437810946" viewBox="-1 -38 32.39999961853027 41.20000076293945" height="160" data-palette-color="#cf5260"><path d="M23.65-13.2L19.35-13.2 19.35-15.95 28.4-15.95 28.4-13.2 26.45-13.2 26.45-1.05Q25.6-0.75 21.93-0.28 18.25 0.2 15.95 0.2 13.65 0.2 11.95-0.13 10.25-0.45 8.35-1.5 6.45-2.55 5.13-4.28 3.8-6 2.9-9 2-12 2-16L2-16Q2-24.85 6.05-29.8L6.05-29.8Q10.3-35 17.65-35L17.65-35Q19.9-35 22.53-34.58 25.15-34.15 26.25-33.75L26.25-33.75 26.85-26.55 24.4-26.2 23.7-31.6Q20.5-32.3 17.65-32.3L17.65-32.3Q12-32.3 8.7-28.1 5.4-23.9 5.4-16L5.4-16Q5.4-12.6 6.1-10.05 6.8-7.5 7.83-6.1 8.85-4.7 10.35-3.9L10.35-3.9Q12.75-2.55 16-2.55 19.25-2.55 23.5-3.2L23.5-3.2 23.65-13.2Z" opacity="1" transform="matrix(1,0,0,1,0,0)" fill="#000000" class="wordmark-text-0" data-fill-palette-color="quaternary" id="text-0"></path></svg></g></svg></g></svg></g></svg></g><g></g></svg></g></svg></g></svg></g></svg></g><defs></defs></svg><rect width="512" height="320" fill="none" stroke="none" visibility="hidden"></rect></g></svg></g></svg>